<svg version="1.2" xmlns="http://www.w3.org/2000/svg" viewBox="0 0 693 528" width="693" height="528"><style>.a{fill:#f2f2f2}.b{fill:#e6e6e6}.c{fill:#7858fe}.d{fill:#ffb6b6}.e{fill:#2f2e41}</style><path class="a" d="m693 283.5v221.8c0 3-0.6 5.9-1.7 8.7-1.2 2.7-2.8 5.2-5 7.3-2.1 2.2-4.6 3.8-7.3 5-2.8 1.1-5.7 1.7-8.7 1.7h-170.1l1.5-2 189.3-240z"/><path class="b" d="m275.1 207.1c1.1 1.2 1.7 2.7 1.7 4.3 0 1.6-0.6 3.1-1.7 4.3-1.2 1.1-2.7 1.7-4.3 1.7h-195.4c-1.6 0-3.1-0.6-4.2-1.7-1.2-1.2-1.8-2.7-1.8-4.3 0-1.6 0.6-3.1 1.8-4.3 1.1-1.1 2.6-1.7 4.2-1.7h195.4c1.6 0 3.1 0.6 4.3 1.7z"/><path class="b" d="m140.3 173.3c1.1 1.1 1.8 2.7 1.8 4.3 0 1.6-0.7 3.1-1.8 4.2-1.1 1.2-2.7 1.8-4.3 1.8h-60.6c-1.6 0-3.1-0.6-4.2-1.8-1.2-1.1-1.8-2.6-1.8-4.2 0-1.6 0.6-3.2 1.8-4.3 1.1-1.1 2.6-1.8 4.2-1.8h60.6c1.6 0 3.2 0.7 4.3 1.8z"/><path fill-rule="evenodd" class="b" d="m679 1.7c2.7 1.2 5.2 2.8 7.3 5 2.2 2.1 3.8 4.6 5 7.3 1.1 2.8 1.7 5.7 1.7 8.7v482.6c0 3-0.6 5.9-1.7 8.7-1.2 2.7-2.8 5.2-5 7.3-2.1 2.2-4.6 3.8-7.3 5-2.8 1.1-5.7 1.7-8.7 1.7h-647.6c-3 0-5.9-0.6-8.7-1.7-2.7-1.2-5.2-2.8-7.3-5-2.2-2.1-3.8-4.6-5-7.3-1.1-2.8-1.7-5.7-1.7-8.7v-482.6c0-3 0.6-5.9 1.7-8.7 1.2-2.7 2.8-5.2 5-7.3 2.1-2.2 4.6-3.8 7.3-5 2.8-1.1 5.7-1.7 8.7-1.7h647.6c3 0 5.9 0.6 8.7 1.7zm12 21c0-2.7-0.5-5.4-1.6-7.9-1-2.5-2.5-4.8-4.5-6.7-1.9-2-4.2-3.5-6.7-4.5-2.5-1.1-5.2-1.6-7.9-1.6h-512.6c-20.5 0-40.7 4-59.6 11.9-18.9 7.8-36 19.2-50.5 33.7-14.5 14.5-25.9 31.6-33.7 50.5-7.9 18.9-11.9 39.1-11.9 59.6v347.6c0 2.7 0.5 5.4 1.6 7.9 1 2.5 2.5 4.8 4.5 6.7 1.9 2 4.2 3.5 6.7 4.5 2.5 1.1 5.2 1.6 7.9 1.6h647.6c2.7 0 5.4-0.5 7.9-1.6 2.5-1 4.8-2.5 6.7-4.5 2-1.9 3.5-4.2 4.5-6.7 1.1-2.5 1.6-5.2 1.6-7.9z"/><path class="b" d="m629.9 87.3h-566.7q-0.5 0-0.7-0.3-0.3-0.3-0.3-0.7 0-0.4 0.3-0.7 0.2-0.3 0.7-0.3h566.7q0.4 0 0.7 0.3 0.3 0.3 0.3 0.7 0 0.4-0.3 0.7-0.3 0.3-0.7 0.3z"/><ellipse class="b" cx="91.5" cy="48.6" rx="8.5" ry="8.6"/><ellipse class="b" cx="120.7" cy="48.6" rx="8.5" ry="8.6"/><ellipse class="b" cx="149.9" cy="48.6" rx="8.5" ry="8.6"/><path class="b" d="m183.3 55.4q-0.1 0-0.2 0-0.1 0-0.2 0-0.1-0.1-0.2-0.1-0.1-0.1-0.2-0.2l-5.7-5.8q-0.1-0.1-0.2-0.3-0.1-0.2-0.1-0.4 0-0.2 0.1-0.4 0.1-0.2 0.2-0.3l5.7-5.8q0.3-0.3 0.7-0.3 0.5 0 0.8 0.2 0.3 0.3 0.3 0.8 0 0.4-0.3 0.7l-5.1 5.1 5.1 5.1q0.2 0.3 0.2 0.5 0.1 0.3 0 0.6-0.1 0.3-0.4 0.5-0.2 0.1-0.5 0.1z"/><path class="b" d="m192.8 55.4q-0.3 0-0.5-0.1-0.3-0.2-0.4-0.5-0.1-0.3 0-0.6 0-0.2 0.2-0.5l5-5.1-5-5.1q-0.3-0.3-0.3-0.7 0.1-0.4 0.3-0.7 0.3-0.3 0.8-0.3 0.4 0 0.7 0.3l5.7 5.8q0.1 0.1 0.2 0.3 0 0.2 0 0.4 0 0.2 0 0.4-0.1 0.2-0.2 0.3l-5.7 5.8q-0.1 0.1-0.2 0.2-0.1 0-0.2 0.1-0.1 0-0.2 0-0.1 0-0.2 0z"/><path class="b" d="m580.2 41.1q0.4 0.2 0.7 0.5 0.3 0.3 0.5 0.7 0.1 0.4 0.2 0.8v10.7q-0.1 0.4-0.2 0.8-0.2 0.4-0.5 0.7-0.3 0.3-0.7 0.5-0.4 0.2-0.8 0.2h-10.7q-0.4 0-0.8-0.2-0.4-0.2-0.7-0.5-0.3-0.3-0.5-0.7-0.1-0.4-0.1-0.8v-10.7q0-0.4 0.1-0.8 0.2-0.4 0.5-0.7 0.3-0.3 0.7-0.5 0.4-0.1 0.8-0.1h10.7q0.4 0 0.8 0.1z"/><path class="b" d="m554.2 41.1q0.4 0.2 0.7 0.5 0.3 0.3 0.5 0.7 0.1 0.4 0.2 0.8v10.7q-0.1 0.4-0.2 0.8-0.2 0.4-0.5 0.7-0.3 0.3-0.7 0.5-0.4 0.2-0.8 0.2h-10.7q-0.4 0-0.8-0.2-0.4-0.2-0.7-0.5-0.3-0.3-0.5-0.7-0.1-0.4-0.1-0.8v-10.7q0-0.4 0.1-0.8 0.2-0.4 0.5-0.7 0.3-0.3 0.7-0.5 0.4-0.1 0.8-0.1h10.7q0.4 0 0.8 0.1z"/><path class="b" d="m604.7 41.6q0.4 0.2 0.7 0.5 0.3 0.3 0.5 0.7 0.1 0.4 0.2 0.8v10.7q-0.1 0.4-0.2 0.8-0.2 0.4-0.5 0.7-0.3 0.3-0.7 0.5-0.4 0.2-0.8 0.2h-10.7q-0.4 0-0.8-0.2-0.4-0.2-0.7-0.5-0.3-0.3-0.5-0.7-0.1-0.4-0.1-0.8v-10.7q0-0.4 0.1-0.8 0.2-0.4 0.5-0.7 0.3-0.3 0.7-0.5 0.4-0.1 0.8-0.1h10.7q0.4 0 0.8 0.1z"/><path class="b" d="m390.8 46.3c0.5 0.5 0.8 1.2 0.8 1.9 0 0.7-0.3 1.4-0.8 1.9-0.5 0.5-1.2 0.7-1.9 0.7h-84.8c-0.7 0-1.4-0.2-1.9-0.7-0.5-0.5-0.7-1.2-0.7-1.9 0-0.7 0.2-1.4 0.7-1.9 0.5-0.5 1.2-0.8 1.9-0.8h84.8c0.7 0 1.4 0.3 1.9 0.8z"/><path class="c" d="m146.6 411.2q26.2-1.9 52.4-2.5 26.2-0.6 52.5 0.2 26.2 0.7 52.4 2.8 26.2 2.1 52.2 5.5c3.8 0.5 7.8 1.1 10.9 2.8 3.2 1.7 5.2 4.9 3.6 7.5-1.6 2.7-6 3.7-9.9 4.4-41.2 7.5-82.7 15-125 17.6-42.3 2.7-85.8 0.3-125.2-11.4-7.4-2.2-14.9-4.9-19.7-9.7-4.7-4.7-5.6-12 0.1-16.1 5-3.7 13-3.7 20-3.5l50.7 1.6"/><path class="b" d="m221.8 371.4q-1 0-1.9 0.4-1 0.4-1.7 1.1-0.7 0.8-1.1 1.7-0.4 0.9-0.4 1.9v0.2q0 1 0.4 1.9 0.4 0.9 1 1.6 0.7 0.7 1.6 1.1 0.9 0.4 1.9 0.5c29.1 1.4 33.2-11.1 31.1 23.6 0 0.5 0.1 12 0 12h-48v-12h30.1q1.2 0 2.2-0.4 1.1-0.5 2-1.3 0.8-0.8 1.3-1.9 0.4-1.1 0.4-2.3v-0.2q0-1.2-0.4-2.3-0.5-1.1-1.3-1.9-0.9-0.9-1.9-1.3-1.1-0.5-2.3-0.5c-34.4-0.1-30.7 8.1-30.1-33.9 8.2 0 39.3 0.2 48 0v12z"/><path class="b" d="m280.8 371.4q-1 0-1.9 0.4-1 0.4-1.7 1.1-0.7 0.8-1.1 1.7-0.4 0.9-0.4 1.9v0.2q0 1 0.4 1.9 0.4 0.9 1 1.6 0.7 0.7 1.6 1.1 0.9 0.4 1.9 0.5c29.1 1.4 33.2-11.1 31.1 23.6 0 0.5 0.1 12 0 12h-48v-12h30.9q1 0 2-0.3 0.9-0.4 1.6-1.2 0.8-0.7 1.1-1.6 0.4-0.9 0.4-2 0-0.9 0-1.9 0-1-0.4-1.9-0.3-0.9-1-1.7-0.8-0.7-1.7-1.1-0.9-0.4-1.9-0.4c-35.3-0.3-31.6 8.4-31-33.9 8.2 0 39.3 0.2 48 0v12z"/><path class="b" d="m162.3 371.4q-1.5 0-2.9 0.6-1.4 0.6-2.5 1.6-1.1 1.1-1.8 2.5-0.6 1.4-0.6 2.9c-1.2 33.1-0.3 26.2 36.2 26.4 0 0 0 12 0 12-3.9-3.1-57.4 8-48-8 0.1-10.9 0-39.3 0-50h48v12c0 0-17.8 0-28.4 0z"/><path class="c" d="m270.6 267.8q26.2-1.7 52.4-2.1 26.2-0.5 52.4 0.1 26.3 0.6 52.4 2.3 26.2 1.8 52.3 4.6c3.8 0.5 7.8 0.9 10.9 2.4 3.2 1.4 5.2 4 3.6 6.2-1.6 2.3-6 3.1-9.9 3.7-41.2 6.2-82.7 12.5-125 14.7-42.3 2.2-85.8 0.2-125.2-9.5-7.4-1.9-14.9-4.1-19.7-8.1-4.7-3.9-5.6-10 0.1-13.5 5-3 13-3 20-2.8l50.7 1.3"/><path class="b" d="m288.7 272.4c-19.2 4-10-12.7-12-24-24.5-2.8-16.2 5.3-17.5 23.5-22.3 10.9-8.3-49.9-12-58 18.5-3.9 10.4 11.5 12 22.5 23.5 2.4 16.7-3.4 17.5-22 22.3-10.8 8.3 50 12 58z"/><path class="b" d="m411.7 214.4c-3.6 7.8 10.3 69-12 58v-39.1c-16.2 20.1-13.1 23.9-30 1.1v38c0 0-12 0-12 0 3.7-7.8-10.2-68.9 12-58-1.9 1.7 14.1 19 14.6 20.2 0.3-1.4 17.1-19.1 15.4-20.2 0 0 12 0 12 0z"/><path class="b" d="m328.7 226.4v46h-12v-46c-11.5-0.8-20.8 4.9-18-12h48c2.9 16.8-6.5 11.3-18 12z"/><path class="b" d="m469.7 260.4v12c-7.1 0-30.2 0.1-42.3 0.1q-1.1 0-2.2-0.5-1-0.4-1.8-1.2-0.8-0.8-1.3-1.9-0.4-1-0.4-2.1c0-14.1 0.1-44.8 0-52.4h12q-1 5.7-1.5 11.5-0.5 5.8-0.5 11.5 0 5.8 0.5 11.6 0.5 5.7 1.5 11.4z"/><path class="b" d="m133.5 265.1c1.7 1.7 2.7 4 2.7 6.3 0 2.4-1 4.7-2.7 6.4-1.6 1.7-3.9 2.6-6.3 2.6h-48.8c-2.4 0-4.7-0.9-6.4-2.6-1.6-1.7-2.6-4-2.6-6.4 0-2.3 1-4.6 2.6-6.3 1.7-1.7 4-2.7 6.4-2.7h48.8c2.4 0 4.7 1 6.3 2.7z"/><path class="d" d="m569.4 517.6h-9.9l-4.7-38.2h14.6v38.2z"/><path class="e" d="m569.7 527.9h-30.4v-0.4c0-1.5 0.3-3.1 0.9-4.5 0.6-1.5 1.5-2.8 2.6-3.9 1.1-1.1 2.4-1.9 3.8-2.5 1.4-0.6 3-0.9 4.5-0.9l5.6-4.3 10.4 4.3h2.6z"/><path class="d" d="m604.4 517.6h-9.9l-4.7-38.2h14.6v38.2z"/><path class="e" d="m604.7 527.9h-30.4v-0.4c0-1.5 0.3-3.1 0.9-4.5 0.6-1.5 1.5-2.8 2.6-3.9 1.1-1.1 2.4-1.9 3.8-2.5 1.4-0.6 3-0.9 4.5-0.9l5.6-4.3 10.4 4.3h2.6z"/><path class="e" d="m609.7 310.4c0 0 12 21 12.2 23.9 0.1 2.9-7.2 52.1-7.2 52.1v8c0 6 0 0 1.7 1.7 1.6 1.7 0 11.6 0 11.6l-9.7 94.7-17 1c0 0-5-7-3-9 2-2 0 0-2.3-2.5-2.3-2.5 2.9-6.8 2.9-6.8-6.4-16.3 0-67 0-67l-5.7-60.4-11.6 50c6.4 26.3 3.7 71.7 3.6 73.6-0.1 2-0.9 6.1-0.7 8.1 0.2 1.9-2.2 3 0 5.9 2.2 3-1.7 7.4-1.7 7.4h-15.5c0 0-8-92.3-11-96.3-3-4 0 0 2.3-1.9 2.3-2-0.3-2.1-2.1-4.1-1.9-2-6.2-44-9-49.1-2.8-5-0.2-1.9 2.8-4.9 3-3 0 0-1.7-3.8-1.8-3.9 7.7-33.1 7.7-33.1z"/><path class="b" d="m599.8 201.4l11.3 9-1.4 70 1 31c0 0-55 29-65 0-1-2.9 2-16.5 2-28q0-2.2-0.2-4.4-0.1-2.2-0.5-4.3-0.4-2.2-0.9-4.3-0.5-2.2-1.2-4.3v-57.7l17.9-7.2 7.4-11.8 24.8 1.7z"/><path class="d" d="m544.7 328.4c-1 2.1-3 3.6-5.3 3.7-2.4 0.1-4.6-1.1-5.7-3.1-1.1-2.1-1-4.6 0.3-6.5l-2.5-19.2 10.5 0.5 1.7 18.2c1.5 1.8 1.9 4.3 1 6.4z"/><path class="b" d="m548 276.6c0 0 1.2 21.8-2.5 23-3.7 1.2-0.3 1.3 1.2 3.7 1.5 2.4-0.6 2.6-2.4 4.3-1.7 1.7 1.4 12.1 1.4 12.1-5.6-2.7-16.9-1.8-16.9-1.8 0 0 0.3-10.3 0-11.8-0.4-1.5-0.1-2.8-2-6.7-1.8-3.9 0.1-3.4 2.1-5.8 1.9-2.3-0.4-1.4-2.5-7.4-2-6.1 0.5-2 2.1-5.8 1.5-3.8 2.4-2.8-1-7.8-4.3-6.5 5.5-49.5 8.6-56q0.8-1.9 2.1-3.5 1.3-1.6 3-2.9 1.6-1.3 3.5-2.1 1.9-0.8 3.9-1.2h0.3c2.9 27 5.3 53.6-0.9 69.7z"/><path class="d" d="m616.9 323.3l0.8-18.3 10.5-1-1.5 19.3c1.4 1.9 1.6 4.4 0.6 6.4-1 2.1-3.2 3.4-5.5 3.4-2.3 0-4.4-1.3-5.5-3.4-1-2-0.8-4.5 0.6-6.4z"/><path class="b" d="m605.9 208.6h0.3q2.1 0.3 4 1 2 0.7 3.7 1.9 1.7 1.2 3 2.7 1.4 1.6 2.4 3.4c3.3 6.4 13.9 49.6 11.3 55.5-2.4 5.5-2.3 4.2-0.5 7.9 1.7 3.7 4-0.5 2.3 5.6-1.8 6.2-4.1 5.4-2.1 7.6 2.1 2.3 4 1.7 2.3 5.7-1.6 4-1.3 5.3-1.5 6.8-0.3 1.4 0.5 11.7 0.5 11.7 0 0-11.3-0.3-16.8 2.7 0 0 2.6-10.6 0.8-12.1-1.9-1.6-4-1.7-2.6-4.2 1.4-2.5 4.8-2.8 1-3.8-3.8-1-3.7-22.8-3.7-22.8z"/><circle class="d" cx="583.2" cy="166.4" r="19.4"/><path class="e" d="m594.6 184.4c0.8-3 1.6-6.2 0.5-9-1.1-2.8-5.1-4.6-7.3-2.5 2.1-5.3-1.9-12.1-7.5-12.9q-1.4-0.1-2.8-0.1-1.4 0-2.8 0.2-1.4 0.1-2.8 0.3-1.3 0.2-2.7 0.5c-3 0.8-6.4 1.1-9-0.5-2.6-1.7-3.4-6.1-0.9-7.8l1.7 2 4-9.2c-0.9 1.5 0.4 3.6 2.1 3.9q0.6 0.1 1.3 0 0.6-0.1 1.2-0.4 0.6-0.2 1.2-0.6 0.5-0.4 0.9-0.9c1.2-1.3 1.3-4.6 3.1-4.3 3.6 0.6 3.6-2 7-4.1 3.4-2.1 5.8 0.2 8.1 3.6 0.5-0.8 1.1-1.4 1.8-1.8 0.7-0.5 1.5-0.8 2.4-0.9 0.8-0.1 1.7 0 2.5 0.3 0.8 0.3 1.6 0.8 2.2 1.4-0.8-0.9-2.4-0.3-2.6 0.8-0.3 1.1 3.5 0 1.5 2.7-2 2.7 2.2 0.5 3.3 0.6 1.7 0 1.2 1.4-0.7 2.1 3.9 2.8 3.5 8.3 5.3 12.7 2 5 0.2 9.6-3.7 13.8-2.3 2.6-2.5 6.6-5.2 8.7"/></svg>